<svg width="41" height="40" viewBox="0 0 41 40" fill="none" xmlns="http://www.w3.org/2000/svg">
<path d="M40.5 6.66667C40.5 10.3486 37.5152 13.3333 33.8333 13.3333C30.1514 13.3333 27.1667 10.3486 27.1667 6.66667C27.1667 2.98477 30.1514 0 33.8333 0C37.5152 0 40.5 2.98477 40.5 6.66667Z" fill="#2F2647"/>
<path d="M40.5 20C40.5 23.6819 37.5152 26.6667 33.8333 26.6667C30.1514 26.6667 27.1667 23.6819 27.1667 20C27.1667 16.3181 30.1514 13.3333 33.8333 13.3333C37.5152 13.3333 40.5 16.3181 40.5 20Z" fill="#2F2647"/>
<path d="M40.5 33.3333C40.5 37.0152 37.5152 40 33.8333 40C30.1514 40 27.1667 37.0152 27.1667 33.3333C27.1667 29.6514 30.1514 26.6667 33.8333 26.6667C37.5152 26.6667 40.5 29.6514 40.5 33.3333Z" fill="#2F2647"/>
<path d="M27.1667 6.66667C27.1667 10.3486 24.1819 13.3333 20.5 13.3333C16.8181 13.3333 13.8333 10.3486 13.8333 6.66667C13.8333 2.98477 16.8181 0 20.5 0C24.1819 0 27.1667 2.98477 27.1667 6.66667Z" fill="#2F2647"/>
<path d="M27.1667 20C27.1667 23.6819 24.1819 26.6667 20.5 26.6667C16.8181 26.6667 13.8333 23.6819 13.8333 20C13.8333 16.3181 16.8181 13.3333 20.5 13.3333C24.1819 13.3333 27.1667 16.3181 27.1667 20Z" fill="#2F2647"/>
<path d="M27.1667 33.3333C27.1667 37.0152 24.1819 40 20.5 40C16.8181 40 13.8333 37.0152 13.8333 33.3333C13.8333 29.6514 16.8181 26.6667 20.5 26.6667C24.1819 26.6667 27.1667 29.6514 27.1667 33.3333Z" fill="#2F2647"/>
<path d="M13.8333 6.66667C13.8333 10.3486 10.8486 13.3333 7.16667 13.3333C3.48477 13.3333 0.5 10.3486 0.5 6.66667C0.5 2.98477 3.48477 0 7.16667 0C10.8486 0 13.8333 2.98477 13.8333 6.66667Z" fill="#2F2647"/>
<path d="M13.8333 20C13.8333 23.6819 10.8486 26.6667 7.16667 26.6667C3.48477 26.6667 0.5 23.6819 0.5 20C0.5 16.3181 3.48477 13.3333 7.16667 13.3333C10.8486 13.3333 13.8333 16.3181 13.8333 20Z" fill="#2F2647"/>
<path d="M13.8333 33.3333C13.8333 37.0152 10.8486 40 7.16667 40C3.48477 40 0.5 37.0152 0.5 33.3333C0.5 29.6514 3.48477 26.6667 7.16667 26.6667C10.8486 26.6667 13.8333 29.6514 13.8333 33.3333Z" fill="#2F2647"/>
</svg>
