<svg width="41" height="40" viewBox="0 0 41 40" fill="none" xmlns="http://www.w3.org/2000/svg">
<path d="M40.5 10C40.5 4.47715 36.0228 -2.41411e-07 30.5 0C24.9772 2.41411e-07 20.5 4.47715 20.5 10C20.5 4.47715 16.0228 6.32816e-07 10.5 8.74228e-07C4.97715 1.31134e-06 0.5 4.47715 0.5 10C0.5 15.5228 4.97715 20 10.5 20C4.97715 20 0.500001 24.4772 0.500001 30C0.500001 35.5228 4.97715 40 10.5 40C16.0228 40 20.5 35.5228 20.5 30C20.5 35.5228 24.9772 40 30.5 40C36.0229 40 40.5 35.5228 40.5 30C40.5 24.4785 36.025 20.0021 30.5039 20C36.025 19.9979 40.5 15.5215 40.5 10Z" fill="#2F2647"/>
</svg>
