<svg width="41" height="40" viewBox="0 0 41 40" fill="none" xmlns="http://www.w3.org/2000/svg">
<path d="M16.5638 6.82222C15.7203 3.48889 16.8647 0 20.5 0C24.1352 0 25.2797 3.48889 24.4362 6.82222C24.1089 8.11557 23.5635 10.3892 23.0184 12.6876C22.3521 15.4973 22.0189 16.9022 22.8084 17.6916C23.5978 18.481 25.0027 18.1479 27.8124 17.4816C30.1108 16.9365 32.3844 16.3911 33.6778 16.0638C37.0111 15.2203 40.5 16.3647 40.5 20C40.5 23.6352 37.0111 24.7797 33.6778 23.9362C32.3844 23.6089 30.1108 23.0635 27.8124 22.5184C25.0027 21.8521 23.5978 21.5189 22.8084 22.3084C22.019 23.0978 22.3521 24.5027 23.0184 27.3124C23.5635 29.6108 24.1089 31.8844 24.4362 33.1778C25.2797 36.5111 24.1353 40 20.5 40C16.8648 40 15.7203 36.5111 16.5638 33.1778C16.8911 31.8844 17.4366 29.6108 17.9816 27.3124C18.6479 24.5027 18.9811 23.0978 18.1916 22.3084C17.4022 21.519 15.9973 21.8521 13.1876 22.5184C10.8892 23.0635 8.61558 23.6089 7.32222 23.9362C3.98889 24.7797 0.499999 23.6353 0.5 20C0.5 16.3648 3.98889 15.2203 7.32222 16.0638C8.61557 16.3911 10.8892 16.9366 13.1876 17.4816C15.9973 18.1479 17.4022 18.4811 18.1916 17.6916C18.981 16.9022 18.6479 15.4974 17.9816 12.6876C17.4365 10.3892 16.8911 8.11558 16.5638 6.82222Z" fill="#2F2647"/>
<path d="M10.5 14.6C13.0405 14.6 15.1 12.5405 15.1 10C15.1 7.45949 13.0405 5.4 10.5 5.4C7.95949 5.4 5.9 7.45949 5.9 10C5.9 12.5405 7.95949 14.6 10.5 14.6Z" fill="#2F2647"/>
<path d="M30.5 14.6C33.0405 14.6 35.1 12.5405 35.1 10C35.1 7.45949 33.0405 5.4 30.5 5.4C27.9595 5.4 25.9 7.45949 25.9 10C25.9 12.5405 27.9595 14.6 30.5 14.6Z" fill="#2F2647"/>
<path d="M15.1 30C15.1 32.5405 13.0405 34.6 10.5 34.6C7.95949 34.6 5.9 32.5405 5.9 30C5.9 27.4595 7.95949 25.4 10.5 25.4C13.0405 25.4 15.1 27.4595 15.1 30Z" fill="#2F2647"/>
<path d="M30.5 34.6C33.0405 34.6 35.1 32.5405 35.1 30C35.1 27.4595 33.0405 25.4 30.5 25.4C27.9595 25.4 25.9 27.4595 25.9 30C25.9 32.5405 27.9595 34.6 30.5 34.6Z" fill="#2F2647"/>
</svg>
