<svg width="41" height="40" viewBox="0 0 41 40" fill="none" xmlns="http://www.w3.org/2000/svg">
<path d="M16.5638 6.5C15.7203 3.5 16.8647 0 20.5 0C24.1352 0 25.2797 3.5 24.4362 6.5C23.8133 8.71538 22.1172 13.93 21.2726 16.5062C21.176 16.8008 21.3668 17.1103 21.653 17.2296C21.9392 17.3488 22.284 17.2601 22.424 16.9835C23.6483 14.5647 26.1365 9.67776 27.2626 7.67074C28.7875 4.953 32.0716 3.28735 34.6421 5.85784C37.2126 8.42833 35.547 11.7125 32.8292 13.2374C30.8222 14.3635 25.9352 16.8516 23.5165 18.0759C23.2399 18.216 23.1512 18.5608 23.2704 18.847C23.3897 19.1332 23.6992 19.324 23.9938 19.2274C26.57 18.3828 31.7846 16.6867 34 16.0638C37 15.2203 40.5 16.3647 40.5 20C40.5 23.6352 37 24.7797 34 23.9362C31.7846 23.3133 26.57 21.6172 23.9938 20.7726C23.6992 20.676 23.3897 20.8668 23.2704 21.153C23.1512 21.4392 23.2399 21.784 23.5165 21.924C25.9353 23.1484 30.8222 25.6365 32.8292 26.7626C35.547 28.2875 37.2126 31.5716 34.6421 34.1421C32.0716 36.7126 28.7875 35.047 27.2626 32.3293C26.1365 30.3222 23.6484 25.4352 22.424 23.0165C22.284 22.7399 21.9392 22.6512 21.653 22.7704C21.3668 22.8897 21.176 23.1992 21.2726 23.4938C22.1172 26.07 23.8133 31.2846 24.4362 33.5C25.2797 36.5 24.1353 40 20.5 40C16.8648 40 15.7203 36.5 16.5638 33.5C17.1867 31.2846 18.8828 26.07 19.7274 23.4938C19.824 23.1992 19.6332 22.8897 19.347 22.7704C19.0608 22.6512 18.716 22.7399 18.576 23.0165C17.3517 25.4353 14.8635 30.3222 13.7374 32.3293C12.2125 35.047 8.9284 36.7127 6.35791 34.1422C3.78742 31.5717 5.453 28.2875 8.17077 26.7626C10.1778 25.6365 15.0648 23.1484 17.4835 21.9241C17.7601 21.784 17.8488 21.4392 17.7296 21.153C17.6103 20.8668 17.3008 20.676 17.0062 20.7726C14.43 21.6172 9.21537 23.3133 7 23.9362C4 24.7797 0.499999 23.6353 0.5 20C0.5 16.3648 4 15.2203 7 16.0638C9.21538 16.6867 14.43 18.3828 17.0062 19.2274C17.3008 19.324 17.6103 19.1332 17.7296 18.847C17.8488 18.5608 17.7601 18.216 17.4835 18.076C15.0647 16.8516 10.1778 14.3635 8.17076 13.2374C5.45302 11.7125 3.78738 8.42837 6.35786 5.85788C8.92835 3.28739 12.2125 4.95298 13.7374 7.67075C14.8635 9.6778 17.3516 14.5648 18.576 16.9835C18.716 17.2601 19.0608 17.3488 19.347 17.2296C19.6332 17.1103 19.824 16.8008 19.7274 16.5062C18.8828 13.93 17.1867 8.71538 16.5638 6.5Z" fill="#2F2647"/>
</svg>
