<svg width="267" height="213" viewBox="0 0 267 213" fill="#DFF4CC" xmlns="http://www.w3.org/2000/svg">
<path d="M145.733 1.44006C144 3.70673 88 197.173 88 200.907C88 204.507 89.7333 205.307 105.733 209.84C116.933 213.04 119.067 213.307 120.533 211.707C122.4 209.573 178.667 16.6401 178.667 12.2401C178.667 8.50673 178.533 8.50673 163.067 3.84006C148.133 -0.693268 147.467 -0.826599 145.733 1.44006Z" fill="white"/>
<path d="M31.6 74.64C14.2667 90.9066 0 105.173 0 106.373C0 107.573 11.4667 119.307 25.6 132.507C63.2 167.84 63.6 168.107 66.4 167.307C69.4667 166.24 88 145.707 88 143.173C88 142.107 79.3333 133.573 68.6667 124.24C58 115.04 49.3333 107.04 49.3333 106.507C49.3333 106.107 56.6667 99.3066 65.7333 91.5733C87.3333 72.7733 88.6667 71.1733 87.2 67.9733C85.6 64.24 66.6667 45.1733 64.8 45.1733C64 45.1733 49.0667 58.5066 31.6 74.64Z" fill="white"/>
<path d="M196.933 48.1068C189.866 54.6401 178.666 67.9734 178.666 69.8401C178.666 70.9067 187.333 79.4401 197.999 88.7734C208.666 98.1068 217.333 106.107 217.333 106.64C217.333 107.04 209.999 113.707 200.933 121.44C179.466 140.24 177.999 141.84 179.466 145.04C181.333 149.04 199.599 167.84 201.733 167.84C202.666 167.84 215.733 156.373 230.799 142.373C269.199 106.507 267.333 108.507 265.866 105.307C264.266 101.84 203.866 45.1734 201.733 45.1734C200.799 45.1734 198.666 46.5068 196.933 48.1068Z" fill="white"/>
</svg>